
<svg xmlns="http://www.w3.org/2000/svg" width="32" height="32" viewBox="0 0 32 32">
  <rect width="32" height="32" rx="4" fill="#0B2B4D"/>
  <g transform="translate(4, 4) scale(0.75)">
    <path d="M20,8 C24,8 28,12 28,16 L28,24 C28,28 24,32 20,32 L12,32 C8,32 4,28 4,24 L4,16 C4,12 8,8 12,8 L20,8 Z" fill="#0B2B4D"/>
    <path d="M16,6 L16,2 M20,4 L20,0 M12,4 L12,0" stroke="#0B2B4D" stroke-width="2"/>
    <text x="16" y="24" font-family="Arial" font-size="14" font-weight="bold" fill="#FFFFFF" text-anchor="middle">₿</text>
    <circle cx="24" cy="20" r="6" fill="#E63946" stroke="#0B2B4D" stroke-width="1"/>
    <path d="M24,17 L24,23 M21,20 L27,20" stroke="#FFFFFF" stroke-width="2"/>
    <path d="M8,12 C4,12 0,16 4,20" stroke="#0B2B4D" stroke-width="2" fill="none"/>
    <path d="M4,20 C0,24 4,28 8,28" stroke="#0B2B4D" stroke-width="2" fill="none"/>
  </g>
</svg>
