
<svg xmlns="http://www.w3.org/2000/svg" width="32" height="32" viewBox="0 0 32 32">
  <rect width="32" height="32" rx="4" fill="#0B2B4D"/>
  <path d="M22,10 C24.2,10 26,11.8 26,14 L26,22 C26,24.2 24.2,26 22,26 L10,26 C7.8,26 6,24.2 6,22 L6,14 C6,11.8 7.8,10 10,10 L14,10 L14,8 C14,6.9 14.9,6 16,6 C17.1,6 18,6.9 18,8 L18,10 L22,10 Z M22,12 L10,12 C8.9,12 8,12.9 8,14 L8,22 C8,23.1 8.9,24 10,24 L22,24 C23.1,24 24,23.1 24,22 L24,14 C24,12.9 23.1,12 22,12 Z M16,15 C18.2,15 20,16.8 20,19 C20,21.2 18.2,23 16,23 C13.8,23 12,21.2 12,19 C12,16.8 13.8,15 16,15 Z" fill="#F9F7F1"/>
  <path d="M21,16 C22.66,16 24,17.34 24,19 C24,20.66 22.66,22 21,22 C20.47,22 19.96,21.84 19.54,21.54 L19.71,21.71 C19.32,21.32 19.32,20.68 19.71,20.29 C20.1,19.9 20.74,19.9 21.13,20.29 L21.3,20.46 C21.74,20.17 22,19.63 22,19 C22,18.45 21.78,17.95 21.41,17.59 C21.05,17.22 20.55,17 20,17 C19.37,17 18.83,17.26 18.54,17.7 L18.71,17.87 C19.1,18.26 19.1,18.9 18.71,19.29 C18.32,19.68 17.68,19.68 17.29,19.29 C16.9,18.9 16.9,18.26 17.29,17.87 L17.46,17.7 C17.16,17.28 17,16.76 17,16.24 C17,15.56 17.29,14.92 17.79,14.46 C18.29,14 18.95,13.76 19.61,13.84 C20.27,13.92 20.86,14.29 21.24,14.84 C21.63,15.38 21.76,16.05 21.63,16.7" fill="#E63946"/>
</svg>
